#N canvas 827 239 527 327 12;
#X obj 71 45 adc~;
#X obj 71 85 hv.filter~ lowpass 12000 0.707;
#X obj 70 297 hv.tanh~;
#X obj 71 128 *~;
#X obj 70 357 hv.filter~ lowpass 4000 0.707;
#X obj 70 417 *~;
#X obj 300 375 r LEVEL @hv_param 0 1 0.5;
#X obj 71 505 dac~;
#X obj 70 257 hv.filter~ lowpass 4000 0.707;
#X obj 70 201 hv.filter~ highpass 740 0.707;
#X obj 281 85 r GAIN @hv_param 0 1 0.2;
#X obj 300 264 r TONE @hv_param 0 1 1;
#X obj 300 297 * 2000;
#X obj 300 328 + 2000;
#X obj 281 110 * 100;
#X connect 0 0 1 0;
#X connect 1 0 3 0;
#X connect 2 0 4 0;
#X connect 3 0 9 0;
#X connect 4 0 5 0;
#X connect 5 0 7 0;
#X connect 5 0 7 1;
#X connect 6 0 5 1;
#X connect 8 0 2 0;
#X connect 9 0 8 0;
#X connect 10 0 14 0;
#X connect 11 0 12 0;
#X connect 12 0 13 0;
#X connect 13 0 4 1;
#X connect 14 0 3 1;
